# File created by Blade
# Date/Time:  Tue Apr 07 20:13:55 2015
# Frame Rate: 120.000 fps
#------------------------------------------------------
:FULLY-SPECIFIED
:DEGREES
4280
root 1.841024 32.662285 -11.705997 15.404640 6.514655 -1.260362
Spine -2.025951 -6.311130 -3.425853
Head 17.527249 -10.915360 9.769156
LeftShoulder -15.257763 47.168056 13.353131
LeftArm 51.124363 3.677866 -83.203734
LeftForeArm -9.556863 -0.000000 48.670725
LeftHand 15.185620 -0.000000 26.667440
LeftHandThumb1 -26.253704 0.000000 33.147579
RightShoulder -3.475721 -6.942086 -14.955679
RightArm 15.100339 1.107806 92.903674
RightForeArm 21.293699 0.000000 64.514475
RightHand 4.037160 -0.000000 5.135038
RightHandThumb1 -24.326973 -0.000000 -32.862282
LeftUpLeg -21.718426 -4.600009 -0.217611
LeftLeg 11.640130 -0.000000 -0.000000
LeftFoot -9.100135 3.934688 -17.464398
LeftToeBase -2.944632 -0.000000 0.000000
RightUpLeg -26.253354 -6.138499 5.058426
RightLeg 19.329392 -0.000000 -0.000000
RightFoot -12.638042 -10.742584 7.988349
RightToeBase 0.954337 -0.000000 -0.000000
4281
root 1.825832 32.669273 -11.685999 15.458820 6.688999 -1.298307
Spine -2.150424 -6.405315 -3.409944
Head 17.087761 -10.861719 9.761165
LeftShoulder -15.350437 47.222478 13.221901
LeftArm 51.182576 3.531082 -83.185006
LeftForeArm -9.752099 -0.000000 48.537206
LeftHand 15.146586 -0.000000 26.754227
LeftHandThumb1 -26.253704 0.000000 33.147579
RightShoulder -3.503727 -7.153120 -14.923175
RightArm 14.861241 0.742623 92.812818
RightForeArm 21.185936 -0.000000 64.254199
RightHand 4.023212 -0.000000 5.113994
RightHandThumb1 -24.326973 -0.000000 -32.862282
LeftUpLeg -21.753596 -4.610755 -0.142895
LeftLeg 11.618656 -0.000000 -0.000000
LeftFoot -9.093378 3.823291 -17.617710
LeftToeBase -2.578685 -0.000000 0.000000
RightUpLeg -26.205407 -6.123073 5.106942
RightLeg 19.186132 -0.000000 -0.000000
RightFoot -12.618024 -10.786762 8.061260
RightToeBase 1.074989 -0.000000 -0.000000
4282
root 1.812849 32.675117 -11.665493 15.506419 6.831776 -1.318943
Spine -2.263651 -6.480554 -3.417872
Head 16.646740 -10.810021 9.760951
LeftShoulder -15.422126 47.222571 13.139499
LeftArm 51.175263 3.406296 -83.196768
LeftForeArm -9.874046 -0.000000 48.355378
LeftHand 15.192712 -0.000000 26.706880
LeftHandThumb1 -26.253704 0.000000 33.147579
RightShoulder -3.537844 -7.386008 -14.908028
RightArm 14.656737 0.339259 92.692817
RightForeArm 21.155600 -0.000000 64.021311
RightHand 4.036499 -0.000000 4.978028
RightHandThumb1 -24.326973 -0.000000 -32.862282
LeftUpLeg -21.768185 -4.630477 -0.092248
LeftLeg 11.585771 -0.000000 -0.000000
LeftFoot -9.017635 3.773595 -17.592612
LeftToeBase -2.668450 -0.000000 0.000000
RightUpLeg -26.183938 -6.159455 5.155664
RightLeg 19.113124 -0.000000 -0.000000
RightFoot -12.579346 -10.819825 8.024461
RightToeBase 1.059676 -0.000000 -0.000000
4283
root 1.800053 32.681034 -11.642924 15.522779 6.949744 -1.330172
Spine -2.345773 -6.548773 -3.448941
Head 16.216877 -10.719445 9.784021
LeftShoulder -15.471499 47.229670 13.087003
LeftArm 51.140551 3.274639 -83.218838
LeftForeArm -10.105544 -0.000000 48.180896
LeftHand 15.229493 -0.000000 26.698176
LeftHandThumb1 -26.253704 0.000000 33.147579
RightShoulder -3.550888 -7.649021 -14.887099
RightArm 14.482015 -0.012232 92.590523
RightForeArm 21.040730 -0.000000 63.806599
RightHand 4.070947 -0.000000 4.984052
RightHandThumb1 -24.326973 -0.000000 -32.862282
LeftUpLeg -21.724845 -4.657955 -0.056966
LeftLeg 11.513058 -0.000000 -0.000000
LeftFoot -8.927632 3.778532 -17.477116
LeftToeBase -2.809451 -0.000000 0.000000
RightUpLeg -26.140892 -6.240494 5.207462
RightLeg 19.062676 -0.000000 -0.000000
RightFoot -12.529634 -10.824832 7.954484
RightToeBase 0.972807 -0.000000 -0.000000
4284
root 1.795244 32.687438 -11.615308 15.474566 7.038557 -1.307068
Spine -2.359549 -6.606777 -3.504976
Head 15.800199 -10.657838 9.754865
LeftShoulder -15.523383 47.244166 13.009340
LeftArm 51.101148 3.148708 -83.251882
LeftForeArm -10.250479 -0.000000 47.978970
LeftHand 15.172696 -0.000000 26.731605
LeftHandThumb1 -26.253704 0.000000 33.147579
RightShoulder -3.540723 -7.912034 -14.880975
RightArm 14.306928 -0.316387 92.477361
RightForeArm 20.957642 -0.000000 63.642353
RightHand 4.009626 -0.000000 5.011601
RightHandThumb1 -24.326973 -0.000000 -32.862282
LeftUpLeg -21.586279 -4.692872 -0.082113
LeftLeg 11.412835 -0.000000 -0.000000
LeftFoot -8.840799 3.850382 -17.321961
LeftToeBase -2.983316 -0.000000 0.000000
RightUpLeg -26.025729 -6.406221 5.220269
RightLeg 19.023614 -0.000000 -0.000000
RightFoot -12.517038 -10.704499 7.932133
RightToeBase 0.957272 -0.000000 -0.000000
4285
root 1.782604 32.693684 -11.591352 15.463137 7.164588 -1.347875
Spine -2.418205 -6.667164 -3.488466
Head 15.400036 -10.593164 9.728904
LeftShoulder -15.515905 47.270290 12.994619
LeftArm 51.045288 3.024981 -83.280580
LeftForeArm -10.486092 -0.000000 47.785377
LeftHand 15.256061 0.000000 26.491829
LeftHandThumb1 -26.253704 0.000000 33.147579
RightShoulder -3.552648 -8.158127 -14.879103
RightArm 14.121412 -0.612441 92.367440
RightForeArm 20.827285 -0.000000 63.489554
RightHand 3.942095 -0.000000 4.983736
RightHandThumb1 -24.326973 -0.000000 -32.862282
LeftUpLeg -21.518880 -4.724354 -0.019654
LeftLeg 11.349935 -0.000000 -0.000000
LeftFoot -8.743387 3.875436 -17.114007
LeftToeBase -3.298131 -0.000000 0.000000
RightUpLeg -25.955099 -6.569399 5.320116
RightLeg 18.972605 -0.000000 -0.000000
RightFoot -12.477722 -10.616562 7.943043
RightToeBase 0.992966 -0.000000 -0.000000
4286
root 1.762933 32.699111 -11.569570 15.476902 7.293585 -1.426638
Spine -2.504675 -6.711082 -3.445097
Head 14.986966 -10.557319 9.737238
LeftShoulder -15.484772 47.260661 13.044505
LeftArm 50.965344 2.939982 -83.308307
LeftForeArm -10.568187 -0.000000 47.546717
LeftHand 15.285643 -0.000000 26.361135
LeftHandThumb1 -26.253704 0.000000 33.147579
RightShoulder -3.595099 -8.409002 -14.885184
RightArm 13.947552 -0.882365 92.280851
RightForeArm 20.621237 0.000000 63.327028
RightHand 3.922838 0.000000 5.158214
RightHandThumb1 -24.326973 -0.000000 -32.862282
LeftUpLeg -21.498820 -4.736735 0.089720
LeftLeg 11.316608 -0.000000 -0.000000
LeftFoot -8.689571 3.870110 -16.945466
LeftToeBase -3.564672 -0.000000 0.000000
RightUpLeg -25.908543 -6.706033 5.469345
RightLeg 18.906832 -0.000000 -0.000000
RightFoot -12.407491 -10.557967 7.934517
RightToeBase 0.888138 -0.000000 -0.000000
